<?xml version="1.0" encoding="UTF-8" standalone="no"?>
<svg
   viewBox="0 0 512 512"
   style="height: 512px; width: 512px;"
   version="1.1"
   id="svg2"
   sodipodi:docname="south.svg"
   inkscape:version="1.4 (86a8ad7, 2024-10-11)"
   xmlns:inkscape="http://www.inkscape.org/namespaces/inkscape"
   xmlns:sodipodi="http://sodipodi.sourceforge.net/DTD/sodipodi-0.dtd"
   xmlns="http://www.w3.org/2000/svg"
   xmlns:svg="http://www.w3.org/2000/svg">
  <defs
     id="defs2" />
  <sodipodi:namedview
     id="namedview2"
     pagecolor="#ffffff"
     bordercolor="#000000"
     borderopacity="0.25"
     inkscape:showpageshadow="2"
     inkscape:pageopacity="0.0"
     inkscape:pagecheckerboard="0"
     inkscape:deskcolor="#d1d1d1"
     inkscape:zoom="1.5097656"
     inkscape:cx="255.66882"
     inkscape:cy="256"
     inkscape:window-width="1920"
     inkscape:window-height="991"
     inkscape:window-x="-9"
     inkscape:window-y="-9"
     inkscape:window-maximized="1"
     inkscape:current-layer="svg2" />
  <path
     d="M0 0h512v512H0z"
     fill="#000"
     fill-opacity="1"
     id="path1" />
  <g
     class=""
     transform="translate(0,0)"
     style=""
     id="g2">
    <path
       d="M 32.26,266.7 C 37.97,386.1 136.4,480 256,480 c 10.6,-1.4 16,0 43.8,-7 v -18 h 59 c 8.1,-4.2 16,-8.9 23.5,-14 H 368 v -16 h -32 v -18 h 85.4 c 8.5,-9.3 16.3,-19.4 23.1,-30 H 432 v -16 h -80 v -18 h 16 v -16 h 48 v -16 h 32 v -16 h 28.5 c 1.7,-9.4 2.7,-18.8 3.2,-28.3 -136.8,13.7 -310.6,13.7 -447.44,0 z"
       fill="#ffffff"
       fill-opacity="0.5"
       id="path2"
       sodipodi:nodetypes="ccccccccccccccccccccccccc" />
  </g>
</svg>
